<?xml version="1.0" encoding="UTF-8"?>
<svg width="190px" height="198px" viewBox="0 0 190 198" version="1.1" xmlns="http://www.w3.org/2000/svg" xmlns:xlink="http://www.w3.org/1999/xlink">
    <title>autochek</title>
    <defs>
        <rect id="path-1" x="0" y="0" width="190" height="198" rx="15"></rect>
    </defs>
    <g id="Page-1" stroke="none" stroke-width="1" fill="none" fill-rule="evenodd">
        <g id="autochek">
            <mask id="mask-2" fill="white">
                <use xlink:href="#path-1"></use>
            </mask>
            <use id="Mask" fill="#FFB619" xlink:href="#path-1"></use>
            <g id="autocheck" mask="url(#mask-2)" fill="#30345E">
                <g transform="translate(18.000000, 40.000000)">
                    <path d="M103,0 C110.230909,2.92318188 115.230909,5.42318188 118,7.5 C120.769091,9.57681812 123.769091,13.0768181 127,18 C123.454663,17.0732225 120.12133,16.7398892 117,17 C113.87867,17.2601108 109.212004,18.2601108 103,20 L103,20 L53,20 C49.8787964,21.6605924 47.3787964,23.9939257 45.5,27 C43.6212036,30.0060743 41.1212036,35.672741 38,44 L38,44 L74,44 C69.7159565,56.3323303 67.8826232,65.8323303 68.5,72.5 C69.1173768,79.1676697 72.6173768,87.6676697 79,98 L79,98 L38,98 L38,109 C37.3333333,114.666667 32.8333333,117.5 24.5,117.5 C16.1666667,117.5 11,114.666667 9,109 L9,109 L9,91 C5,85.3333333 3.5,77.3333333 4.5,67 C5.5,56.6666667 7.66666667,50.6666667 11,49 L11,49 L4,49 C1.33333333,44.2222222 0,40.8888889 0,39 C0,37.1111111 1.33333333,35.4444444 4,34 L4,34 L21,34 C25.5106088,22.7283115 29.6772754,15.0616449 33.5,11 C37.3227246,6.93835514 43.8227246,3.27168848 53,0 L53,0 Z M28,59 C25.026948,58.7026948 23.7690865,59.7309135 22,61.5 C20.2309135,63.2690865 18.4364885,65.2170999 18,69 C17.6864885,71.7170999 19.2219778,72.8568286 20.5,74.5 C21.3520148,75.5954476 22.8520148,76.7621142 25,78 C28.1111111,78.6666667 30.4444444,79 32,79 C33.5555556,79 35.8888889,78.6666667 39,78 C42.2211214,76.6584106 43.7211214,75.1584106 43.5,73.5 C43.1683179,71.0123842 39.9056682,65.6332618 37,63 C34.0943318,60.3667382 32.526948,59.4526948 28,59 Z" id="car"></path>
                    <path d="M120.5,31 C141.210678,31 158,47.7893219 158,68.5 C158,89.2106781 141.210678,106 120.5,106 C99.7893219,106 83,89.2106781 83,68.5 C83,47.7893219 99.7893219,31 120.5,31 Z M142,45 C135.535907,49.9348059 129.86924,55.4348059 125,61.5 C120.13076,67.5651941 116.297426,73.8985274 113.5,80.5 L103,69 L95,77 L113,96 L114.347722,93.0768919 L114.347722,93.0768919 L115.65584,90.2795417 L115.65584,90.2795417 L116.610939,88.2640577 L116.610939,88.2640577 L117.54376,86.3193126 L117.54376,86.3193126 L118.752869,83.8363572 L118.752869,83.8363572 L119.63371,82.0566694 L119.63371,82.0566694 L120.492275,80.3477203 L120.492275,80.3477203 L121.328562,78.7095101 L121.328562,78.7095101 L121.87371,77.6566694 L121.87371,77.6566694 L122.408958,76.6352681 L122.408958,76.6352681 L123.193265,75.1621152 L123.193265,75.1621152 L123.70376,74.2193126 L123.70376,74.2193126 L124.204355,73.3079495 L124.204355,73.3079495 L124.936682,71.9998538 L124.936682,71.9998538 L125.646732,70.7624971 L125.646732,70.7624971 L126.107722,69.9768919 L126.107722,69.9768919 L126.558811,69.2227262 L126.558811,69.2227262 L127,68.5 L127,68.5 C130.635317,62.6082795 135.635317,56.1082795 142,49 L142,45 Z" id="Shape"></path>
                </g>
            </g>
        </g>
    </g>
</svg>