<svg xmlns="http://www.w3.org/2000/svg" width="18" height="16" fill="none" viewBox="0 0 18 16"><g stroke="#7C7E88" stroke-linecap="round" stroke-linejoin="round" stroke-width="1.05" clip-path="url(#insuranceClip0)"><path d="M12.884 1h2.606c.276 0 .542.105.737.293a.98.98 0 01.305.707v8a4.9 4.9 0 01-1.526 3.536A5.325 5.325 0 0111.32 15H6.11a5.325 5.325 0 01-3.685-1.464A4.9 4.9 0 01.898 10V2c0-.265.11-.52.306-.707.195-.188.46-.293.737-.293h2.605M6.11 8.5h1.042M10.281 8.5h1.043M5.07 10.5v1M12.363 10.5v1"></path><path d="M13.231 7.748L12.363 6.5l-.805-2.316c-.069-.2-.202-.372-.38-.495a1.072 1.072 0 00-.609-.189H6.86c-.218 0-.432.066-.609.189s-.31.296-.38.495L5.068 6.5 4.2 7.748a.971.971 0 00-.176.555v1.2c0 .265.11.52.306.707.195.187.46.293.737.293h7.295c.277 0 .542-.106.737-.293a.98.98 0 00.306-.707v-1.2a.97.97 0 00-.173-.555v0zM5.07 6.5h7.296"></path></g><defs><clipPath id="insuranceClip0"><path fill="#fff" d="M0 0H16.676V16H0z" transform="translate(.379)"></path></clipPath></defs></svg>